<mxfile host="65bd71144e">
    <diagram id="_sKK2UwzpJbQZBueO74u" name="Page-1">
        <mxGraphModel dx="758" dy="571" grid="1" gridSize="10" guides="1" tooltips="1" connect="1" arrows="1" fold="1" page="1" pageScale="1" pageWidth="850" pageHeight="1100" math="0" shadow="0">
            <root>
                <mxCell id="0"/>
                <mxCell id="1" parent="0"/>
                <mxCell id="2" value="" style="whiteSpace=wrap;html=1;aspect=fixed;" vertex="1" parent="1">
                    <mxGeometry x="110" y="20" width="540" height="540" as="geometry"/>
                </mxCell>
                <mxCell id="4" value="" style="shape=process;whiteSpace=wrap;html=1;backgroundOutline=1;" vertex="1" parent="1">
                    <mxGeometry x="110" y="20" width="540" height="60" as="geometry"/>
                </mxCell>
                <mxCell id="6" value="Title" style="text;strokeColor=none;fillColor=none;html=1;fontSize=24;fontStyle=1;verticalAlign=middle;align=center;" vertex="1" parent="1">
                    <mxGeometry x="260" y="140" width="100" height="40" as="geometry"/>
                </mxCell>
                <mxCell id="7" value="" style="whiteSpace=wrap;html=1;aspect=fixed;" vertex="1" parent="1">
                    <mxGeometry x="140" y="200" width="80" height="80" as="geometry"/>
                </mxCell>
                <mxCell id="8" value="" style="whiteSpace=wrap;html=1;aspect=fixed;" vertex="1" parent="1">
                    <mxGeometry x="270" y="200" width="80" height="80" as="geometry"/>
                </mxCell>
                <mxCell id="9" value="" style="whiteSpace=wrap;html=1;aspect=fixed;" vertex="1" parent="1">
                    <mxGeometry x="400" y="200" width="80" height="80" as="geometry"/>
                </mxCell>
                <mxCell id="10" value="" style="whiteSpace=wrap;html=1;aspect=fixed;" vertex="1" parent="1">
                    <mxGeometry x="400" y="310" width="80" height="80" as="geometry"/>
                </mxCell>
                <mxCell id="11" value="" style="whiteSpace=wrap;html=1;aspect=fixed;" vertex="1" parent="1">
                    <mxGeometry x="140" y="310" width="80" height="80" as="geometry"/>
                </mxCell>
                <mxCell id="12" value="" style="whiteSpace=wrap;html=1;aspect=fixed;" vertex="1" parent="1">
                    <mxGeometry x="270" y="310" width="80" height="80" as="geometry"/>
                </mxCell>
                <mxCell id="13" value="" style="rounded=1;whiteSpace=wrap;html=1;" vertex="1" parent="1">
                    <mxGeometry x="530" y="80" width="120" height="480" as="geometry"/>
                </mxCell>
                <mxCell id="14" value="" style="rounded=1;whiteSpace=wrap;html=1;" vertex="1" parent="1">
                    <mxGeometry x="180" y="480" width="270" height="30" as="geometry"/>
                </mxCell>
                <mxCell id="15" value="" style="rounded=1;whiteSpace=wrap;html=1;" vertex="1" parent="1">
                    <mxGeometry x="130" y="100" width="380" height="30" as="geometry"/>
                </mxCell>
                <mxCell id="16" value="List" style="swimlane;fontStyle=0;childLayout=stackLayout;horizontal=1;startSize=30;horizontalStack=0;resizeParent=1;resizeParentMax=0;resizeLast=0;collapsible=1;marginBottom=0;whiteSpace=wrap;html=1;" vertex="1" parent="1">
                    <mxGeometry x="540" y="220" width="100" height="120" as="geometry"/>
                </mxCell>
                <mxCell id="17" value="Item 1" style="text;strokeColor=none;fillColor=none;align=left;verticalAlign=middle;spacingLeft=4;spacingRight=4;overflow=hidden;points=[[0,0.5],[1,0.5]];portConstraint=eastwest;rotatable=0;whiteSpace=wrap;html=1;" vertex="1" parent="16">
                    <mxGeometry y="30" width="100" height="30" as="geometry"/>
                </mxCell>
                <mxCell id="18" value="Item 2" style="text;strokeColor=none;fillColor=none;align=left;verticalAlign=middle;spacingLeft=4;spacingRight=4;overflow=hidden;points=[[0,0.5],[1,0.5]];portConstraint=eastwest;rotatable=0;whiteSpace=wrap;html=1;" vertex="1" parent="16">
                    <mxGeometry y="60" width="100" height="30" as="geometry"/>
                </mxCell>
                <mxCell id="19" value="Item 3" style="text;strokeColor=none;fillColor=none;align=left;verticalAlign=middle;spacingLeft=4;spacingRight=4;overflow=hidden;points=[[0,0.5],[1,0.5]];portConstraint=eastwest;rotatable=0;whiteSpace=wrap;html=1;" vertex="1" parent="16">
                    <mxGeometry y="90" width="100" height="30" as="geometry"/>
                </mxCell>
                <mxCell id="20" value="" style="shape=flexArrow;endArrow=classic;html=1;" edge="1" parent="1">
                    <mxGeometry width="50" height="50" relative="1" as="geometry">
                        <mxPoint x="570" y="185" as="sourcePoint"/>
                        <mxPoint x="620" y="135" as="targetPoint"/>
                    </mxGeometry>
                </mxCell>
            </root>
        </mxGraphModel>
    </diagram>
</mxfile>